<?xml version="1.0" encoding="UTF-8" standalone="no"?>
<!-- Created with Inkscape (http://www.inkscape.org/) -->

<svg
   xmlns:dc="http://purl.org/dc/elements/1.1/"
   xmlns:cc="http://creativecommons.org/ns#"
   xmlns:rdf="http://www.w3.org/1999/02/22-rdf-syntax-ns#"
   xmlns:svg="http://www.w3.org/2000/svg"
   xmlns="http://www.w3.org/2000/svg"
   xmlns:sodipodi="http://sodipodi.sourceforge.net/DTD/sodipodi-0.dtd"
   xmlns:inkscape="http://www.inkscape.org/namespaces/inkscape"
   width="59.361832mm"
   height="47.497616mm"
   viewBox="0 0 59.361831 47.497616"
   version="1.1"
   id="svg5806"
   sodipodi:docname="circleMill.svg"
   inkscape:version="0.92.5 (2060ec1f9f, 2020-04-08)">
  <defs
     id="defs5800" />
  <sodipodi:namedview
     id="base"
     pagecolor="#ffffff"
     bordercolor="#666666"
     borderopacity="1.0"
     inkscape:pageopacity="0.0"
     inkscape:pageshadow="2"
     inkscape:zoom="2.6033568"
     inkscape:cx="78.992246"
     inkscape:cy="100.8512"
     inkscape:document-units="mm"
     inkscape:current-layer="layer1"
     showgrid="false"
     inkscape:window-width="1916"
     inkscape:window-height="1037"
     inkscape:window-x="0"
     inkscape:window-y="41"
     inkscape:window-maximized="0"
     inkscape:object-paths="false"
     inkscape:snap-bbox="true" />
  <metadata
     id="metadata5803">
    <rdf:RDF>
      <cc:Work
         rdf:about="">
        <dc:format>image/svg+xml</dc:format>
        <dc:type
           rdf:resource="http://purl.org/dc/dcmitype/StillImage" />
      </cc:Work>
    </rdf:RDF>
  </metadata>
  <g
     inkscape:label="Layer 1"
     inkscape:groupmode="layer"
     id="layer1"
     transform="translate(-13.762961,-73.560866)">
    <path
       inkscape:connector-curvature="0"
       id="path1686"
       style="fill:#e0f1e0;fill-opacity:1;fill-rule:nonzero;stroke:none;stroke-width:0.04603245"
       d="m 26.445409,73.902598 c -2.274884,-1.529392 -8.659565,2.479081 -10.178011,4.048887 -2.068918,2.143839 -2.504437,5.16146 -2.504437,5.16146 0,0 1.119508,-1.072784 2.339202,-1.126946 1.538768,-0.07236 1.670201,1.780215 1.670201,1.780215 l 0.0061,-0.01021 c -0.01409,0.113525 -0.02894,0.22823 -0.04099,0.351139 -0.422803,0.38163 -1.987513,1.881476 -2.951749,3.855057 -1.312479,2.683395 -0.805311,5.69274 -0.805311,5.69274 0,0 0.738812,-1.367479 1.878949,-1.799463 1.390376,-0.519683 2.085587,1.038124 2.136385,1.157878 l 0.0018,-0.05992 c 0.02647,0.133764 0.04408,0.269222 0.07087,0.402933 -0.28377,0.497758 -1.310503,2.413749 -1.626581,4.591425 -0.404968,2.867657 0.902507,5.494267 0.988867,5.653427 0.02712,-0.12161 0.327721,-1.55844 1.234354,-2.28732 1.140259,-0.91964 2.268883,0.31024 2.385665,0.43519 0.06599,0.0973 0.113311,0.1995 0.174883,0.30326 -0.115886,0.55689 -0.511433,2.70387 -0.137695,4.87326 0.507524,2.9396 2.680552,5.07296 2.680552,5.07296 0,0 -0.204222,-1.54447 0.464973,-2.56407 0.85042,-1.29249 2.410923,-0.32057 2.410923,-0.32057 l -0.02971,-0.0382 c 0.09343,0.0908 0.183514,0.18583 0.279437,0.27316 0.058,0.57263 0.350428,2.72568 1.371076,4.67296 1.383931,2.6389 4.103706,3.9951 4.103706,3.9951 0,0 -0.665529,-1.40576 -0.341768,-2.58827 0.409222,-1.49588 2.192144,-1.05588 2.192144,-1.05588 l -0.03156,-0.0215 c 0.117681,0.0529 0.229636,0.11728 0.347252,0.171 0.238263,0.53236 1.169016,2.48757 2.733074,4.01042 2.13079,2.08159 5.125507,2.52576 5.125507,2.52576 0,0 -1.062588,-1.13186 -1.11986,-2.35393 -0.06802,-1.55343 1.768948,-1.68026 1.768948,-1.68026 l -0.01946,0.001 c 0.113519,0.0144 0.23011,0.0228 0.349144,0.0408 0.379012,0.42419 1.869845,1.99902 3.831818,2.96904 2.666382,1.32028 5.660466,0.80448 5.660466,0.80448 0,0 -1.362625,-0.73801 -1.792705,-1.88504 -0.515729,-1.39925 1.035732,-2.10374 1.15456,-2.15544 l -0.06333,10e-4 c 0.133351,-0.0268 0.267276,-0.0445 0.400298,-0.0709 0.494577,0.28572 2.398698,1.31872 4.566595,1.63106 2.846141,0.41302 5.456489,-0.90218 5.614517,-0.98975 -0.120699,-0.0264 -1.549105,-0.32996 -2.273277,-1.24171 -0.913536,-1.1477 0.309234,-2.28282 0.433176,-2.40051 0.09715,-0.0661 0.202295,-0.11951 0.301593,-0.17653 0.552864,0.11689 2.690281,0.50961 4.846112,0.13362 2.921527,-0.51113 5.03838,-2.6921 5.03838,-2.6921 0,0 -1.531913,0.20023 -2.545125,-0.47307 -1.286476,-0.85202 -0.317045,-2.42779 -0.317045,-2.42779 l -0.04109,0.027 c 0.09235,-0.0923 0.184723,-0.18511 0.271866,-0.28149 0.568832,-0.0579 2.70842,-0.35221 4.639608,-1.37415 l 0.0091,-0.008 c 0.26778,-0.42404 -2.719487,-10.83565 -2.700046,-11.336284 l -2.999137,6.328704 C 59.854328,112.82898 44.556466,115.89168 33.242967,108.286 21.929284,100.68214 18.884567,85.288261 26.441568,73.902924"
       inkscape:export-filename="/home/it/prj/libtlc/img/logo_300x125.png"
       inkscape:export-xdpi="62.099998"
       inkscape:export-ydpi="62.099998" />
  </g>
</svg>
