<?xml version="1.0" encoding="UTF-8" standalone="no"?>
<svg
   xmlns:dc="http://purl.org/dc/elements/1.1/"
   xmlns:cc="http://creativecommons.org/ns#"
   xmlns:rdf="http://www.w3.org/1999/02/22-rdf-syntax-ns#"
   xmlns:svg="http://www.w3.org/2000/svg"
   xmlns="http://www.w3.org/2000/svg"
   xmlns:sodipodi="http://sodipodi.sourceforge.net/DTD/sodipodi-0.dtd"
   xmlns:inkscape="http://www.inkscape.org/namespaces/inkscape"
   id="Слой_1"
   data-name="Слой 1"
   viewBox="0 0 470.59 119.18"
   version="1.1"
   sodipodi:docname="logotypeBig.svg"
   width="470.59"
   height="119.18"
   inkscape:version="0.92.5 (2060ec1f9f, 2020-04-08)">
  <metadata
     id="metadata107">
    <rdf:RDF>
      <cc:Work
         rdf:about="">
        <dc:format>image/svg+xml</dc:format>
        <dc:type
           rdf:resource="http://purl.org/dc/dcmitype/StillImage" />
        <dc:title></dc:title>
      </cc:Work>
    </rdf:RDF>
  </metadata>
  <defs
     id="defs105" />
  <sodipodi:namedview
     pagecolor="#ffffff"
     bordercolor="#666666"
     borderopacity="1"
     objecttolerance="10"
     gridtolerance="10"
     guidetolerance="10"
     inkscape:pageopacity="0"
     inkscape:pageshadow="2"
     inkscape:window-width="1916"
     inkscape:window-height="1037"
     id="namedview103"
     showgrid="false"
     inkscape:zoom="1.7424935"
     inkscape:cx="257.74387"
     inkscape:cy="-17.909067"
     inkscape:window-x="0"
     inkscape:window-y="41"
     inkscape:window-maximized="0"
     inkscape:current-layer="Слой_1" />
  <g
     id="g159">
    <polygon
       style="fill:#156634"
       id="polygon2"
       points="33.67,58.44 33.67,36.19 22.79,39.32 22.79,58.44 " />
    <polygon
       style="fill:#156634"
       id="polygon4"
       points="22.79,60.74 22.79,79.86 33.67,82.99 33.67,60.74 " />
    <polygon
       style="fill:#156634"
       id="polygon6"
       points="22.79,102.35 33.67,108.53 33.67,85.38 22.79,82.25 " />
    <polygon
       style="fill:#156634"
       id="polygon8"
       points="33.67,10.35 22.79,16.5 22.79,36.93 33.67,33.8 " />
    <polygon
       style="fill:#2db44b"
       id="polygon10"
       points="104.06,73.38 104.06,60.74 52.1,60.74 52.01,88.38 " />
    <polygon
       style="fill:#2db44b"
       id="polygon12"
       points="52.11,58.44 104.06,58.44 104.06,45.8 52.21,30.86 " />
    <polygon
       style="fill:#2db44b"
       id="polygon14"
       points="51.9,119.18 104.06,89.25 104.06,75.78 52,90.78 " />
    <polygon
       style="fill:#2db44b"
       id="polygon16"
       points="104.06,29.51 52.31,0 52.22,28.47 104.06,43.4 " />
    <path
       style="fill:#146634"
       inkscape:connector-curvature="0"
       id="path18"
       d="m 233.65,75.92 v 9.38 h -0.78 a 10,10 0 0 0 -3.28,-5.63 8.35,8.35 0 0 0 -5.43,-2 8,8 0 0 0 -4.65,1.46 8.44,8.44 0 0 0 -3.09,3.87 17.2,17.2 0 0 0 -1.26,6.7 22.49,22.49 0 0 0 0.92,6.62 8.84,8.84 0 0 0 2.87,4.52 8.07,8.07 0 0 0 5.07,1.52 9.87,9.87 0 0 0 4.69,-1.12 16.06,16.06 0 0 0 4.48,-3.85 v 2.34 a 14.87,14.87 0 0 1 -4.74,3.44 14.47,14.47 0 0 1 -5.76,1.07 16.51,16.51 0 0 1 -7.7,-1.74 12.31,12.31 0 0 1 -5.19,-5 13.92,13.92 0 0 1 -1.8,-6.93 14.82,14.82 0 0 1 7.5,-12.74 14.87,14.87 0 0 1 7.32,-1.91 16.54,16.54 0 0 1 6,1.24 9.48,9.48 0 0 0 2.33,0.71 1.48,1.48 0 0 0 1.11,-0.47 2.51,2.51 0 0 0 0.61,-1.48 z" />
    <path
       style="fill:#146634"
       inkscape:connector-curvature="0"
       id="path20"
       d="m 252.78,103.61 v -0.74 h 0.85 q 2,0 2.46,-0.84 a 6.79,6.79 0 0 0 0.48,-3.07 V 78.29 H 247 V 99 c 0,1.74 0.21,2.83 0.63,3.26 a 3.35,3.35 0 0 0 2.4,0.65 h 0.82 v 0.74 H 236.7 v -0.74 h 0.86 a 3,3 0 0 0 2.36,-0.68 c 0.38,-0.45 0.58,-1.53 0.58,-3.23 V 81.17 A 6.07,6.07 0 0 0 240,78 c -0.36,-0.49 -1.16,-0.74 -2.4,-0.74 h -0.86 v -0.73 h 30.21 v 0.73 h -0.72 a 3.16,3.16 0 0 0 -2.51,0.76 5.54,5.54 0 0 0 -0.6,3.14 V 99 c 0,1.74 0.22,2.83 0.68,3.26 a 3.62,3.62 0 0 0 2.51,0.65 h 0.64 v 0.74 z" />
    <path
       style="fill:#146634"
       inkscape:connector-curvature="0"
       id="path22"
       d="m 278.83,78.09 v 11 h 0.54 a 4.29,4.29 0 0 0 3.74,-1.61 10,10 0 0 0 1.47,-4.77 h 0.76 V 96.9 h -0.76 a 10.44,10.44 0 0 0 -1,-3.79 4.3,4.3 0 0 0 -1.78,-2 6.81,6.81 0 0 0 -3,-0.51 v 7.63 a 11.44,11.44 0 0 0 0.2,2.77 1.63,1.63 0 0 0 0.71,0.81 3.28,3.28 0 0 0 1.68,0.32 H 283 a 8.71,8.71 0 0 0 9.36,-7.1 h 0.74 l -1.22,8.6 h -23.4 v -0.74 h 0.9 a 3.7,3.7 0 0 0 1.89,-0.42 1.73,1.73 0 0 0 0.8,-1 8,8 0 0 0 0.22,-2.51 V 81.17 a 13.77,13.77 0 0 0 -0.1,-2.26 1.94,1.94 0 0 0 -0.74,-1.08 3.42,3.42 0 0 0 -2.07,-0.56 h -0.9 v -0.73 h 22.66 v 8 h -0.76 a 9.82,9.82 0 0 0 -1.62,-4.21 6.08,6.08 0 0 0 -3,-1.88 16,16 0 0 0 -4.19,-0.36 z" />
    <path
       style="fill:#146634"
       inkscape:connector-curvature="0"
       id="path24"
       d="m 295.8,76.54 h 14.1 v 0.73 h -0.46 a 3.63,3.63 0 0 0 -2.66,0.73 4.19,4.19 0 0 0 -0.67,2.77 v 8.09 a 21.83,21.83 0 0 0 3.63,-0.19 2.89,2.89 0 0 0 1.56,-1.1 10.25,10.25 0 0 0 1.38,-3.51 26.92,26.92 0 0 1 1.5,-4.55 6.13,6.13 0 0 1 2,-2.41 5.55,5.55 0 0 1 3.22,-0.88 4.33,4.33 0 0 1 3.08,1.08 3.56,3.56 0 0 1 1.18,2.7 2.53,2.53 0 0 1 -0.78,2 2.76,2.76 0 0 1 -1.94,0.72 c -1.52,0 -2.33,-0.88 -2.45,-2.64 -0.06,-0.88 -0.36,-1.32 -0.92,-1.32 a 1.83,1.83 0 0 0 -1.54,1 15.15,15.15 0 0 0 -1.38,3.66 39.26,39.26 0 0 1 -1.24,3.86 5.69,5.69 0 0 1 -1.47,2.16 5.72,5.72 0 0 1 2,0.84 5.62,5.62 0 0 1 1.25,1.35 q 0.56,0.83 2.4,4.2 l 2.75,4.92 a 4.44,4.44 0 0 0 1.53,1.62 4.06,4.06 0 0 0 2.15,0.53 v 0.74 h -9.07 l -5.57,-10.38 a 9,9 0 0 0 -1.41,-2.13 3.35,3.35 0 0 0 -1.82,-0.43 v 9.17 c 0,1.3 0.27,2.13 0.8,2.49 a 5.82,5.82 0 0 0 3,0.54 v 0.74 H 295.8 v -0.74 a 5,5 0 0 0 3.07,-0.69 3.81,3.81 0 0 0 0.73,-2.78 V 81.29 a 6.11,6.11 0 0 0 -0.58,-3.2 c -0.39,-0.54 -1.27,-0.82 -2.64,-0.82 h -0.58 z" />
    <path
       style="fill:#146634"
       inkscape:connector-curvature="0"
       id="path26"
       d="m 350.41,76.54 v 7.32 h -0.72 a 11.66,11.66 0 0 0 -1.41,-3.64 5.52,5.52 0 0 0 -2.14,-1.77 6.85,6.85 0 0 0 -2.66,-0.36 h -2 V 99 a 8.24,8.24 0 0 0 0.23,2.59 2,2 0 0 0 0.89,0.91 3.66,3.66 0 0 0 1.83,0.39 h 0.9 v 0.74 h -14.19 v -0.74 h 0.9 a 3.74,3.74 0 0 0 1.9,-0.42 1.89,1.89 0 0 0 0.82,-1 A 8.34,8.34 0 0 0 335,99 V 78.09 h -2 a 5.69,5.69 0 0 0 -4,1.16 7.69,7.69 0 0 0 -2.2,4.61 h -0.76 v -7.32 z" />
    <path
       style="fill:#146634"
       inkscape:connector-curvature="0"
       id="path28"
       d="m 362.93,91.35 v 7.51 a 8.34,8.34 0 0 0 0.27,2.76 1.94,1.94 0 0 0 1,0.91 6.31,6.31 0 0 0 2.52,0.34 v 0.74 h -13.79 v -0.74 a 6,6 0 0 0 2.54,-0.35 2,2 0 0 0 0.94,-0.91 8.23,8.23 0 0 0 0.27,-2.75 V 81.29 a 8.38,8.38 0 0 0 -0.27,-2.77 2,2 0 0 0 -1,-0.91 6.46,6.46 0 0 0 -2.53,-0.34 v -0.73 h 11.8 q 5.82,0 8.36,2.07 a 6.46,6.46 0 0 1 2.54,5.19 6.65,6.65 0 0 1 -1.58,4.52 8.29,8.29 0 0 1 -4.51,2.55 30.75,30.75 0 0 1 -6.56,0.48 z m 0,-13.26 v 11.7 c 0.44,0 0.77,0 1,0 a 4.83,4.83 0 0 0 3.75,-1.44 6.51,6.51 0 0 0 1.32,-4.45 6.25,6.25 0 0 0 -1.32,-4.41 5.16,5.16 0 0 0 -3.93,-1.4 z" />
    <path
       style="fill:#2cb34b"
       inkscape:connector-curvature="0"
       id="path30"
       d="m 171.26,26.34 0.11,4.49 H 171 a 4.6,4.6 0 0 0 -1.41,-2.72 3.55,3.55 0 0 0 -2.44,-1 2.31,2.31 0 0 0 -1.61,0.54 1.67,1.67 0 0 0 -0.59,1.25 1.54,1.54 0 0 0 0.21,0.8 3.25,3.25 0 0 0 0.93,0.92 19.64,19.64 0 0 0 2.15,1.16 9.61,9.61 0 0 1 3.19,2.2 3.74,3.74 0 0 1 0.82,2.36 3.82,3.82 0 0 1 -1.32,2.91 4.74,4.74 0 0 1 -3.34,1.22 5.83,5.83 0 0 1 -1.21,-0.13 9.7,9.7 0 0 1 -1.42,-0.49 2.17,2.17 0 0 0 -0.78,-0.2 1,1 0 0 0 -0.55,0.2 1.37,1.37 0 0 0 -0.47,0.61 h -0.36 v -5.12 h 0.36 a 5.88,5.88 0 0 0 1.69,3.27 4,4 0 0 0 2.69,1.13 2.49,2.49 0 0 0 1.77,-0.61 1.83,1.83 0 0 0 0.41,-2.33 3,3 0 0 0 -0.77,-0.85 12,12 0 0 0 -1.83,-1.05 14.73,14.73 0 0 1 -2.64,-1.54 4.7,4.7 0 0 1 -1.24,-1.42 3.5,3.5 0 0 1 -0.43,-1.73 3.64,3.64 0 0 1 1.19,-2.74 4.11,4.11 0 0 1 3,-1.13 4.86,4.86 0 0 1 1.27,0.16 6.15,6.15 0 0 1 1.14,0.44 2.79,2.79 0 0 0 0.94,0.32 0.53,0.53 0 0 0 0.41,-0.16 1.72,1.72 0 0 0 0.27,-0.76 z" />
    <path
       style="fill:#2cb34b"
       inkscape:connector-curvature="0"
       id="path32"
       d="m 180.47,39.75 v 0.37 h -7 v -0.37 h 0.45 a 1.84,1.84 0 0 0 0.94,-0.21 1,1 0 0 0 0.4,-0.47 4.24,4.24 0 0 0 0.11,-1.26 V 29 a 4.5,4.5 0 0 0 -0.11,-1.29 1,1 0 0 0 -0.44,-0.45 1.82,1.82 0 0 0 -0.9,-0.2 h -0.45 V 26.7 h 7 V 27 H 180 a 1.86,1.86 0 0 0 -0.95,0.21 0.94,0.94 0 0 0 -0.41,0.48 4.29,4.29 0 0 0 -0.1,1.25 v 8.86 a 4.14,4.14 0 0 0 0.11,1.29 1,1 0 0 0 0.45,0.46 1.77,1.77 0 0 0 0.9,0.19 z" />
    <path
       style="fill:#2cb34b"
       inkscape:connector-curvature="0"
       id="path34"
       d="m 190,33 a 6.73,6.73 0 0 1 2.69,1.09 2.85,2.85 0 0 1 1.12,2.34 3.11,3.11 0 0 1 -1.23,2.52 6.84,6.84 0 0 1 -4.36,1.2 h -6.84 v -0.37 a 3.18,3.18 0 0 0 1.26,-0.17 1,1 0 0 0 0.47,-0.46 4,4 0 0 0 0.14,-1.37 V 29 a 4.12,4.12 0 0 0 -0.14,-1.38 1,1 0 0 0 -0.47,-0.45 3.25,3.25 0 0 0 -1.26,-0.17 v -0.36 h 6.46 a 9,9 0 0 1 3.27,0.41 3.31,3.31 0 0 1 1.52,1.23 3,3 0 0 1 0.56,1.74 2.49,2.49 0 0 1 -0.7,1.74 A 5.06,5.06 0 0 1 190,33 Z m -3.62,0.51 v 4.79 a 1,1 0 0 0 1.09,1.08 3,3 0 0 0 1.46,-0.35 2.41,2.41 0 0 0 1,-1 3.14,3.14 0 0 0 0.36,-1.5 3.3,3.3 0 0 0 -0.44,-1.69 2.36,2.36 0 0 0 -1.2,-1 6.42,6.42 0 0 0 -2.28,-0.36 z m 0,-0.77 a 5.18,5.18 0 0 0 2.09,-0.32 2.38,2.38 0 0 0 1,-0.9 2.81,2.81 0 0 0 0.35,-1.47 2.7,2.7 0 0 0 -0.35,-1.46 2.27,2.27 0 0 0 -1,-0.87 5.29,5.29 0 0 0 -2.11,-0.29 z" />
    <path
       style="fill:#2cb34b"
       inkscape:connector-curvature="0"
       id="path36"
       d="m 200.06,27.42 v 5.48 h 0.26 a 2.11,2.11 0 0 0 1.86,-0.8 5,5 0 0 0 0.74,-2.37 h 0.38 v 7.05 h -0.38 a 5.4,5.4 0 0 0 -0.5,-1.89 2.25,2.25 0 0 0 -0.89,-1 3.38,3.38 0 0 0 -1.47,-0.25 v 3.8 a 5.76,5.76 0 0 0 0.09,1.36 0.79,0.79 0 0 0 0.35,0.4 1.64,1.64 0 0 0 0.84,0.16 h 0.8 a 4.33,4.33 0 0 0 4.66,-3.53 h 0.37 l -0.6,4.28 h -11.65 v -0.37 h 0.45 a 1.84,1.84 0 0 0 0.94,-0.21 0.9,0.9 0 0 0 0.4,-0.47 4.24,4.24 0 0 0 0.11,-1.26 V 29 a 7.43,7.43 0 0 0 0,-1.12 1,1 0 0 0 -0.37,-0.54 1.75,1.75 0 0 0 -1,-0.28 H 195 V 26.7 h 11.2 v 4 h -0.38 a 4.87,4.87 0 0 0 -0.81,-2.1 3,3 0 0 0 -1.48,-0.93 7.88,7.88 0 0 0 -2.08,-0.18 z" />
    <path
       style="fill:#2cb34b"
       inkscape:connector-curvature="0"
       id="path38"
       d="m 213.49,34 v 3.77 a 4.22,4.22 0 0 0 0.13,1.38 1,1 0 0 0 0.48,0.45 3.18,3.18 0 0 0 1.26,0.17 v 0.37 h -6.9 v -0.37 a 3.24,3.24 0 0 0 1.27,-0.17 1,1 0 0 0 0.47,-0.46 4.11,4.11 0 0 0 0.13,-1.37 V 29 A 4.22,4.22 0 0 0 210.2,27.62 1,1 0 0 0 209.72,27.17 3.18,3.18 0 0 0 208.46,27 v -0.36 h 6.26 a 14,14 0 0 1 3.58,0.33 3.65,3.65 0 0 1 1.85,1.25 3.4,3.4 0 0 1 0.71,2.13 3.22,3.22 0 0 1 -1.07,2.47 4.53,4.53 0 0 1 -1.92,0.92 l 3.24,4.56 a 6.23,6.23 0 0 0 0.91,1.1 1.63,1.63 0 0 0 0.94,0.34 v 0.37 h -4.24 L 214.37,34 Z m 0,-6.61 v 5.9 h 0.57 a 6.25,6.25 0 0 0 2.06,-0.25 2,2 0 0 0 1.08,-0.91 3.41,3.41 0 0 0 0.39,-1.73 3.12,3.12 0 0 0 -0.72,-2.27 3.13,3.13 0 0 0 -2.32,-0.74 z" />
    <path
       style="fill:#2cb34b"
       inkscape:connector-curvature="0"
       id="path40"
       d="m 230.23,39.75 v 0.37 h -7 v -0.37 h 0.44 a 1.86,1.86 0 0 0 1,-0.21 1,1 0 0 0 0.4,-0.47 4.24,4.24 0 0 0 0.11,-1.26 V 29 a 4.5,4.5 0 0 0 -0.11,-1.29 1,1 0 0 0 -0.45,-0.45 1.77,1.77 0 0 0 -0.9,-0.2 h -0.44 V 26.7 h 7 V 27 h -0.45 a 1.84,1.84 0 0 0 -0.94,0.21 0.94,0.94 0 0 0 -0.41,0.48 4.15,4.15 0 0 0 -0.11,1.25 v 8.86 a 4,4 0 0 0 0.12,1.29 1,1 0 0 0 0.45,0.46 1.76,1.76 0 0 0 0.89,0.19 z" />
    <path
       style="fill:#2cb34b"
       inkscape:connector-curvature="0"
       id="path42"
       d="m 239.16,36.28 h -4.75 l -0.57,1.31 a 2.86,2.86 0 0 0 -0.28,1.09 0.88,0.88 0 0 0 0.46,0.83 3.67,3.67 0 0 0 1.32,0.24 v 0.37 h -4.48 v -0.37 a 2,2 0 0 0 1.19,-0.6 8,8 0 0 0 1.15,-2 L 238,26.37 h 0.19 l 4.86,11.05 a 6.62,6.62 0 0 0 1.14,2 1.55,1.55 0 0 0 1,0.36 v 0.37 h -6.52 v -0.37 h 0.27 a 2,2 0 0 0 1.1,-0.22 0.54,0.54 0 0 0 0.22,-0.46 1.18,1.18 0 0 0 -0.06,-0.36 c 0,-0.06 -0.11,-0.31 -0.3,-0.75 z m -0.33,-0.73 -2,-4.64 -2.07,4.64 z" />
    <path
       style="fill:#2cb34b"
       inkscape:connector-curvature="0"
       id="path44"
       d="m 263.4,26.34 v 4.75 H 263 a 6,6 0 0 0 -2,-3 4.65,4.65 0 0 0 -2.91,-1 3.77,3.77 0 0 0 -2.51,0.85 4.63,4.63 0 0 0 -1.42,2.37 11.62,11.62 0 0 0 -0.42,3.12 11.23,11.23 0 0 0 0.46,3.4 3.86,3.86 0 0 0 1.5,2.17 4.29,4.29 0 0 0 2.42,0.68 4.92,4.92 0 0 0 1,-0.1 6.51,6.51 0 0 0 1.05,-0.31 v -2.8 a 3.08,3.08 0 0 0 -0.11,-1 1,1 0 0 0 -0.45,-0.42 1.78,1.78 0 0 0 -0.83,-0.19 h -0.35 V 34.49 H 265 v 0.37 a 2.84,2.84 0 0 0 -1,0.21 1,1 0 0 0 -0.45,0.51 2.74,2.74 0 0 0 -0.09,0.92 v 2.8 a 12.62,12.62 0 0 1 -2.69,0.87 13.78,13.78 0 0 1 -2.9,0.3 8.35,8.35 0 0 1 -3.18,-0.53 7.7,7.7 0 0 1 -2.24,-1.37 6.38,6.38 0 0 1 -1.51,-1.91 6.73,6.73 0 0 1 -0.7,-3.07 6.94,6.94 0 0 1 2.14,-5.14 7.39,7.39 0 0 1 5.38,-2.09 9,9 0 0 1 1.8,0.16 8.67,8.67 0 0 1 1.42,0.45 5.61,5.61 0 0 0 1.16,0.37 0.8,0.8 0 0 0 0.51,-0.2 1.85,1.85 0 0 0 0.44,-0.77 z" />
    <path
       style="fill:#2cb34b"
       inkscape:connector-curvature="0"
       id="path46"
       d="m 270.59,34 v 3.77 a 4.12,4.12 0 0 0 0.14,1.38 0.94,0.94 0 0 0 0.47,0.45 3.18,3.18 0 0 0 1.26,0.17 v 0.37 h -6.9 v -0.37 a 3.21,3.21 0 0 0 1.27,-0.17 1,1 0 0 0 0.47,-0.46 4.11,4.11 0 0 0 0.13,-1.37 V 29 A 4.22,4.22 0 0 0 267.3,27.62 1,1 0 0 0 266.83,27.17 3.28,3.28 0 0 0 265.56,27 v -0.36 h 6.26 a 14,14 0 0 1 3.58,0.33 3.61,3.61 0 0 1 1.85,1.25 3.34,3.34 0 0 1 0.71,2.13 3.18,3.18 0 0 1 -1.07,2.47 4.47,4.47 0 0 1 -1.92,0.92 l 3.24,4.56 a 6.72,6.72 0 0 0 0.91,1.1 1.63,1.63 0 0 0 0.94,0.34 v 0.37 h -4.24 L 271.48,34 Z m 0,-6.61 v 5.9 h 0.57 a 6.36,6.36 0 0 0 2.07,-0.25 2.06,2.06 0 0 0 1.07,-0.91 3.31,3.31 0 0 0 0.4,-1.73 3.12,3.12 0 0 0 -0.72,-2.27 3.17,3.17 0 0 0 -2.32,-0.74 z" />
    <path
       style="fill:#2cb34b"
       inkscape:connector-curvature="0"
       id="path48"
       d="m 287.74,26.46 a 6.72,6.72 0 0 1 5.26,1.87 6.79,6.79 0 0 1 2,5 7.18,7.18 0 0 1 -1.5,4.51 6.67,6.67 0 0 1 -5.62,2.59 6.79,6.79 0 0 1 -5.63,-2.43 7.12,7.12 0 0 1 -1.57,-4.62 6.71,6.71 0 0 1 2,-5 6.47,6.47 0 0 1 5.06,-1.92 z m 0.12,0.63 a 3,3 0 0 0 -2.81,1.91 10.13,10.13 0 0 0 -0.79,4.45 8.63,8.63 0 0 0 1.22,5.1 2.75,2.75 0 0 0 2.36,1.15 2.79,2.79 0 0 0 1.71,-0.5 4,4 0 0 0 1.36,-2 11.11,11.11 0 0 0 0.49,-3.64 12.15,12.15 0 0 0 -0.5,-4 3.83,3.83 0 0 0 -1.27,-1.87 2.93,2.93 0 0 0 -1.77,-0.6 z" />
    <path
       style="fill:#2cb34b"
       inkscape:connector-curvature="0"
       id="path50"
       d="m 296.19,26.65 h 6.95 V 27 h -0.35 a 2.36,2.36 0 0 0 -1.07,0.17 0.91,0.91 0 0 0 -0.42,0.45 4.85,4.85 0 0 0 -0.13,1.44 v 6.6 a 6.71,6.71 0 0 0 0.28,2.39 2.28,2.28 0 0 0 0.9,1 3,3 0 0 0 1.58,0.38 3.35,3.35 0 0 0 1.86,-0.49 3,3 0 0 0 1.15,-1.36 8.12,8.12 0 0 0 0.38,-3 V 29.07 A 3.33,3.33 0 0 0 307.14,27.78 1.17,1.17 0 0 0 306.66,27.24 2.86,2.86 0 0 0 305.4,27 v -0.36 h 4.66 V 27 h -0.28 a 1.79,1.79 0 0 0 -0.94,0.23 1.24,1.24 0 0 0 -0.55,0.69 3.3,3.3 0 0 0 -0.13,1.14 v 5.12 a 13.2,13.2 0 0 1 -0.31,3.42 3.81,3.81 0 0 1 -1.53,1.94 5.51,5.51 0 0 1 -3.31,0.89 6.32,6.32 0 0 1 -2.7,-0.47 4,4 0 0 1 -1.84,-1.63 5.6,5.6 0 0 1 -0.53,-2.67 v -6.6 a 4.89,4.89 0 0 0 -0.13,-1.45 1,1 0 0 0 -0.45,-0.45 2.84,2.84 0 0 0 -1.17,-0.16 z" />
    <path
       style="fill:#2cb34b"
       inkscape:connector-curvature="0"
       id="path52"
       d="m 315.9,34 v 3.73 a 4.22,4.22 0 0 0 0.13,1.38 1,1 0 0 0 0.48,0.45 3.25,3.25 0 0 0 1.26,0.17 v 0.37 h -6.85 v -0.37 a 3.24,3.24 0 0 0 1.27,-0.17 1,1 0 0 0 0.47,-0.46 4.41,4.41 0 0 0 0.13,-1.37 V 29 a 4.54,4.54 0 0 0 -0.13,-1.38 1,1 0 0 0 -0.48,-0.45 3.18,3.18 0 0 0 -1.26,-0.17 v -0.36 h 5.87 a 6.61,6.61 0 0 1 4.17,1 3.21,3.21 0 0 1 1.26,2.58 3.29,3.29 0 0 1 -0.82,2.25 4.17,4.17 0 0 1 -2.24,1.27 15.24,15.24 0 0 1 -3.26,0.26 z m 0,-6.6 v 5.82 c 0.22,0 0.38,0 0.5,0 a 2.38,2.38 0 0 0 1.86,-0.72 3.21,3.21 0 0 0 0.66,-2.23 3.08,3.08 0 0 0 -0.66,-2.19 2.53,2.53 0 0 0 -1.95,-0.7 z" />
    <path
       style="fill:#2cb34b"
       inkscape:connector-curvature="0"
       id="path54"
       d="M 340.38,26.34 V 31 H 340 a 4.9,4.9 0 0 0 -1.63,-2.8 4.14,4.14 0 0 0 -2.7,-1 3.94,3.94 0 0 0 -2.31,0.73 4.18,4.18 0 0 0 -1.54,1.89 8.57,8.57 0 0 0 -0.63,3.34 11,11 0 0 0 0.46,3.3 4.3,4.3 0 0 0 1.43,2.24 4,4 0 0 0 2.52,0.76 4.91,4.91 0 0 0 2.33,-0.55 7.92,7.92 0 0 0 2.22,-1.91 v 1.16 a 7.18,7.18 0 0 1 -2.36,1.71 7,7 0 0 1 -2.86,0.54 8.16,8.16 0 0 1 -3.83,-0.87 6.08,6.08 0 0 1 -2.59,-2.48 7,7 0 0 1 -0.91,-3.45 7.22,7.22 0 0 1 1,-3.66 7.1,7.1 0 0 1 2.73,-2.68 7.3,7.3 0 0 1 3.64,-0.95 8.32,8.32 0 0 1 3,0.61 4.54,4.54 0 0 0 1.16,0.36 0.76,0.76 0 0 0 0.55,-0.23 1.23,1.23 0 0 0 0.3,-0.74 z" />
    <path
       style="fill:#2cb34b"
       inkscape:connector-curvature="0"
       id="path56"
       d="m 349.35,26.46 a 6.67,6.67 0 0 1 7.25,6.87 7.18,7.18 0 0 1 -1.5,4.51 6.67,6.67 0 0 1 -5.62,2.59 6.79,6.79 0 0 1 -5.62,-2.43 7.12,7.12 0 0 1 -1.57,-4.62 6.71,6.71 0 0 1 2,-5 6.48,6.48 0 0 1 5.06,-1.92 z m 0.12,0.63 a 3,3 0 0 0 -2.81,1.91 10.14,10.14 0 0 0 -0.78,4.45 8.64,8.64 0 0 0 1.21,5.1 3.06,3.06 0 0 0 4.07,0.65 4,4 0 0 0 1.36,-2 11.11,11.11 0 0 0 0.49,-3.64 11.89,11.89 0 0 0 -0.5,-4 3.89,3.89 0 0 0 -1.26,-1.87 3,3 0 0 0 -1.78,-0.6 z" />
    <path
       style="fill:#2cb34b"
       inkscape:connector-curvature="0"
       id="path58"
       d="m 367,35.53 3.66,-8.88 h 5.48 V 27 h -0.44 a 1.88,1.88 0 0 0 -1,0.21 1,1 0 0 0 -0.4,0.47 4.11,4.11 0 0 0 -0.11,1.24 v 8.88 a 4.5,4.5 0 0 0 0.11,1.29 1,1 0 0 0 0.45,0.46 1.82,1.82 0 0 0 0.9,0.19 h 0.44 v 0.37 h -7 v -0.37 h 0.43 a 1.9,1.9 0 0 0 1,-0.21 1,1 0 0 0 0.4,-0.47 4.24,4.24 0 0 0 0.11,-1.26 v -10 l -5.17,12.29 h -0.24 l -5.25,-12.2 v 9.49 a 8.83,8.83 0 0 0 0.05,1.22 1.48,1.48 0 0 0 0.56,0.81 2.34,2.34 0 0 0 1.36,0.31 v 0.37 h -4.61 v -0.37 h 0.14 a 2,2 0 0 0 0.83,-0.14 1.34,1.34 0 0 0 0.59,-0.42 1.86,1.86 0 0 0 0.31,-0.72 c 0,-0.07 0,-0.41 0,-1 v -8.51 a 4.46,4.46 0 0 0 -0.11,-1.28 1,1 0 0 0 -0.45,-0.44 1.79,1.79 0 0 0 -0.9,-0.2 h -0.43 v -0.36 h 5.51 z" />
    <path
       style="fill:#2cb34b"
       inkscape:connector-curvature="0"
       id="path60"
       d="m 382,34 v 3.73 a 4.12,4.12 0 0 0 0.14,1.38 1,1 0 0 0 0.47,0.45 3.25,3.25 0 0 0 1.26,0.17 v 0.37 h -6.84 v -0.37 a 3.18,3.18 0 0 0 1.26,-0.17 1,1 0 0 0 0.47,-0.46 4.11,4.11 0 0 0 0.13,-1.37 V 29 a 4.22,4.22 0 0 0 -0.13,-1.38 1,1 0 0 0 -0.47,-0.45 3.25,3.25 0 0 0 -1.26,-0.17 v -0.36 h 5.87 a 6.59,6.59 0 0 1 4.16,1 3.21,3.21 0 0 1 1.26,2.58 3.33,3.33 0 0 1 -0.81,2.25 4.17,4.17 0 0 1 -2.25,1.27 A 15.24,15.24 0 0 1 382,34 Z m 0,-6.6 v 5.82 c 0.22,0 0.39,0 0.5,0 a 2.4,2.4 0 0 0 1.87,-0.72 3.21,3.21 0 0 0 0.65,-2.23 3.08,3.08 0 0 0 -0.65,-2.19 2.55,2.55 0 0 0 -2,-0.7 z" />
    <path
       style="fill:#2cb34b"
       inkscape:connector-curvature="0"
       id="path62"
       d="m 395.91,36.28 h -4.76 l -0.56,1.31 a 2.86,2.86 0 0 0 -0.28,1.09 0.88,0.88 0 0 0 0.46,0.83 3.67,3.67 0 0 0 1.32,0.24 v 0.37 h -4.48 v -0.37 a 2,2 0 0 0 1.19,-0.6 8.29,8.29 0 0 0 1.15,-2 L 394.77,26.4 H 395 l 4.86,11.05 a 6.62,6.62 0 0 0 1.14,2 1.52,1.52 0 0 0 1,0.36 v 0.37 h -6.6 v -0.37 h 0.26 a 2,2 0 0 0 1.11,-0.22 0.54,0.54 0 0 0 0.22,-0.46 1.18,1.18 0 0 0 -0.06,-0.36 q 0,-0.09 -0.3,-0.75 z m -0.33,-0.73 -2,-4.64 -2.07,4.64 z" />
    <path
       style="fill:#2cb34b"
       inkscape:connector-curvature="0"
       id="path64"
       d="m 407.21,26.65 6.65,8.35 v -5.79 a 2.74,2.74 0 0 0 -0.35,-1.64 2,2 0 0 0 -1.6,-0.56 v -0.36 h 4.45 V 27 a 3.48,3.48 0 0 0 -1.15,0.29 1.12,1.12 0 0 0 -0.45,0.56 3.81,3.81 0 0 0 -0.17,1.35 v 11.23 h -0.33 l -9.12,-11.22 v 8.56 a 1.87,1.87 0 0 0 0.54,1.57 1.94,1.94 0 0 0 1.21,0.41 h 0.32 v 0.37 h -4.78 v -0.37 a 2.17,2.17 0 0 0 1.55,-0.46 2.12,2.12 0 0 0 0.44,-1.52 v -9.51 l -0.29,-0.35 a 2.62,2.62 0 0 0 -0.75,-0.71 2.47,2.47 0 0 0 -0.95,-0.19 v -0.36 z" />
    <path
       style="fill:#2cb34b"
       inkscape:connector-curvature="0"
       id="path66"
       d="M 431.31,26.65 V 27 a 2,2 0 0 0 -1,0.39 10.63,10.63 0 0 0 -1.57,2.28 l -2.92,4.87 v 3.26 a 4.54,4.54 0 0 0 0.11,1.3 1,1 0 0 0 0.43,0.45 1.66,1.66 0 0 0 0.86,0.19 H 428 v 0.37 h -7.56 v -0.37 h 0.7 a 1.79,1.79 0 0 0 0.94,-0.21 0.91,0.91 0 0 0 0.41,-0.47 3.9,3.9 0 0 0 0.11,-1.26 v -2.7 l -3.17,-5.77 a 8.39,8.39 0 0 0 -1.33,-2 1.64,1.64 0 0 0 -1,-0.32 v -0.36 h 6.46 V 27 h -0.29 a 1.47,1.47 0 0 0 -0.82,0.17 0.45,0.45 0 0 0 -0.24,0.36 6,6 0 0 0 0.8,1.8 l 2.43,4.46 2.43,-4.07 a 5.39,5.39 0 0 0 0.9,-2 0.52,0.52 0 0 0 -0.26,-0.45 2.57,2.57 0 0 0 -1.24,-0.3 v -0.36 z" />
    <rect
       style="fill:#146634"
       id="rect68"
       height="4.4699998"
       width="341.75"
       y="56.560001"
       x="128.84" />
    <polygon
       style="fill:#156634"
       id="polygon70"
       points="10.04,43.17 10.04,58.44 20.45,58.44 20.45,40.17 " />
    <polygon
       style="fill:#156634"
       id="polygon72"
       points="20.45,79.01 20.45,60.74 10.04,60.74 10.04,76.01 " />
    <polygon
       style="fill:#156634"
       id="polygon74"
       points="0,60.74 0,73.11 7.7,75.33 7.7,60.74 " />
    <polygon
       style="fill:#156634"
       id="polygon76"
       points="33.67,82.81 33.67,60.74 22.79,60.74 22.79,79.68 " />
    <polygon
       style="fill:#156634"
       id="polygon78"
       points="10.04,24.17 10.04,40.78 20.45,37.78 20.45,18.16 " />
    <polygon
       style="fill:#156634"
       id="polygon80"
       points="20.45,81.4 10.04,78.4 10.04,94.99 20.45,101.01 " />
    <polygon
       style="fill:#156634"
       id="polygon82"
       points="22.79,39.5 22.79,58.44 33.67,58.44 33.67,36.37 " />
    <polygon
       style="fill:#156634"
       id="polygon84"
       points="0,46.07 0,58.44 7.7,58.44 7.7,43.85 " />
    <polygon
       style="fill:#156634"
       id="polygon86"
       points="0,75.51 0,89.19 7.7,93.64 7.7,77.73 " />
    <polygon
       style="fill:#156634"
       id="polygon88"
       points="7.7,25.52 0,29.96 0,43.67 7.7,41.45 " />
    <polygon
       style="fill:#156634"
       id="polygon90"
       points="51.9,28.72 51.9,0 36,9.18 36,33.3 " />
    <polygon
       style="fill:#156634"
       id="polygon92"
       points="36,109.99 51.9,119.18 51.9,90.46 36,85.88 " />
    <polygon
       style="fill:#156634"
       id="polygon94"
       points="36,60.74 36,83.48 51.9,88.06 51.9,60.74 " />
    <polygon
       style="fill:#156634"
       id="polygon96"
       points="36,58.44 51.9,58.44 51.9,31.12 36,35.7 " />
    <polygon
       style="fill:#156634"
       id="polygon98"
       points="22.79,37.1 33.67,33.97 33.67,10.53 22.79,16.8 " />
    <polygon
       style="fill:#156634"
       id="polygon100"
       points="22.79,82.08 22.79,102.36 33.67,108.64 33.67,85.21 " />
  </g>
</svg>
